<svg id="Layer_1" data-name="Layer 1" xmlns="http://www.w3.org/2000/svg" viewBox="0 0 178.01 42.52" fill="white" class="h-full w-full"><g><path class="cls-1" d="M86.9,23.93v10.36c-2.82,4.8-4.81,8.2-4.81,8.2h-6.31s5.43-9.04,11.12-18.56Z"></path><path class="cls-1" d="M86.9,8.23v10.36c-3.34,5.58-6.76,11.33-9.24,15.51-2.11,3.56-4.04,8.49-9.84,8.42-5.58-.07-7.68-4.9-9.93-8.66-2.73-4.56-5.78-9.79-8.49-14.32-1.46-2.44-3.18-4.75-4.21-7.2-.51-1.23-.8-2.65-.92-4.21v-.89c.52-3.54,2.53-6.29,6.22-6.96,2.23-.4,7.74-.24,7.74-.24h23.38V5.05s-25.73-.04-25.74,0c-2.66,0-4.54-.1-5.47,1.54-1.43,2.51,.65,4.95,1.68,6.8,3.26,5.88,6.61,11.71,10.09,17.81,1.3,2.27,2.74,5.58,5.63,5.58,1.91,0,3.55-1.88,4.37-3.32,3.94-6.83,10.32-17.74,14.7-25.22Z"></path><path id="Path_4" data-name="Path 4" class="cls-1" d="M53.74,35.29v-.89c-.12-1.56-.41-2.98-.92-4.21-1.02-2.46-2.74-4.76-4.21-7.2-2.71-4.53-5.77-9.76-8.5-14.32C37.87,4.9,35.77,.08,30.19,0c-5.8-.08-7.73,4.85-9.84,8.42C13.67,19.73,0,42.49,0,42.49H6.31S19.35,20.29,25.82,9.06c.83-1.43,2.47-3.32,4.37-3.32,2.89,0,4.34,3.31,5.63,5.58,3.48,6.09,6.83,11.92,10.09,17.8,1.03,1.85,3.11,4.29,1.68,6.8-.93,1.64-2.81,1.54-5.47,1.54,0,.04-25.73,0-25.73,0v5.02h23.38s5.5,.16,7.74-.24c3.69-.67,5.7-3.42,6.22-6.96Z"></path></g><g id="Group_4569" data-name="Group 4569"><g id="Group_3385" data-name="Group 3385"><path id="Path_7808" data-name="Path 7808" class="cls-1" d="M178.01,19.87v-.5c-.05-.81-.21-1.61-.5-2.37-.67-1.4-1.43-2.76-2.28-4.06-1.47-2.55-3.12-5.5-4.6-8.07C169.41,2.76,168.28,.04,165.25,0c-3.14-.04-4.19,2.73-5.33,4.74-3.62,6.37-11.03,19.18-11.03,19.18h3.42s7.06-12.5,10.57-18.82c.45-.81,1.34-1.87,2.37-1.87,1.57,0,2.35,1.86,3.05,3.14,1.88,3.43,3.7,6.71,5.47,10.02,.56,1.04,1.68,2.41,.91,3.83-.5,.92-1.52,.87-2.96,.87,0,.02-13.94,0-13.94,0v2.82h12.67c1.4,.05,2.8,0,4.19-.14,2-.37,3.09-1.93,3.37-3.92Z"></path><g id="Group_3285" data-name="Group 3285"><g id="Group_3282" data-name="Group 3282"><path id="Path_7809" data-name="Path 7809" class="cls-1" d="M107.21,0V.59c0,.25-.09,.49-.24,.69l-15.19,21.22h15.29v1.44h-17.6v-.63c0-.22,.07-.43,.2-.61L104.91,1.44h-14.99V0h17.29Z"></path></g><g id="Group_3283" data-name="Group 3283"><path id="Path_7810" data-name="Path 7810" class="cls-1" d="M114.81,23.94h-1.74V0h1.74V23.94Z"></path></g><g id="Group_3284" data-name="Group 3284"><path id="Path_7811" data-name="Path 7811" class="cls-1" d="M134.44,17.98c.07-.18,.14-.36,.21-.53,.07-.17,.15-.34,.25-.5L144.3,.32c.06-.12,.15-.21,.27-.27,.12-.04,.25-.06,.37-.05h1.2V23.94h-1.52V3.54c0-.31,.02-.62,.05-.93l-9.42,16.73c-.12,.27-.38,.44-.68,.44h-.27c-.29,0-.55-.18-.68-.44L123.95,2.59c.03,.31,.05,.63,.05,.95V23.94h-1.51V0h1.18c.13,0,.26,.01,.38,.05,.12,.06,.22,.15,.28,.27l9.66,16.65c.17,.33,.32,.67,.44,1.02Z"></path></g></g></g><g id="Group_4567" data-name="Group 4567"><path id="Path_27238" data-name="Path 27238" class="cls-1" d="M95.27,34.61v.19c0,.08-.03,.16-.08,.23l-4.96,6.92h4.99v.47h-5.74v-.21c0-.07,.02-.14,.07-.2l4.97-6.94h-4.89v-.47h5.64Z"></path><path id="Path_27239" data-name="Path 27239" class="cls-1" d="M99.98,42.43h-.57v-7.81h.57v7.81Z"></path><path id="Path_27240" data-name="Path 27240" class="cls-1" d="M108.62,40.48c.02-.06,.04-.12,.07-.17,.02-.06,.05-.11,.08-.16l3.07-5.43s.05-.07,.09-.09c.04-.01,.08-.02,.12-.02h.39v7.81h-.5v-6.66c0-.1,0-.2,.02-.3l-3.08,5.46c-.04,.09-.13,.14-.22,.14h-.09c-.09,0-.18-.06-.22-.14l-3.16-5.47c.01,.1,.02,.21,.02,.31v6.66h-.49v-7.81h.39s.08,0,.12,.02c.04,.02,.07,.05,.09,.09l3.15,5.43c.06,.11,.11,.22,.15,.33Z"></path><path id="Path_27241" data-name="Path 27241" class="cls-1" d="M123.93,38.52c0,.56-.08,1.12-.27,1.64-.17,.47-.42,.9-.76,1.26-.33,.35-.73,.62-1.18,.81-.97,.38-2.05,.38-3.03,0-.44-.18-.85-.46-1.18-.81-.34-.36-.6-.79-.77-1.26-.36-1.06-.36-2.22,0-3.28,.17-.47,.43-.9,.77-1.26,.33-.35,.73-.62,1.18-.81,.48-.2,.99-.29,1.51-.29,.52,0,1.04,.09,1.52,.28,.45,.18,.85,.46,1.18,.81,.34,.36,.6,.79,.76,1.26,.19,.53,.28,1.08,.27,1.64Zm-.59,0c0-.5-.07-.99-.23-1.47-.14-.41-.35-.78-.64-1.1-.27-.3-.61-.54-.99-.69-.41-.16-.85-.25-1.29-.24-.44,0-.87,.08-1.27,.24-.38,.16-.72,.39-.99,.69-.29,.32-.51,.7-.65,1.1-.31,.96-.31,1.98,0,2.94,.14,.41,.36,.78,.65,1.1,.28,.3,.62,.54,.99,.69,.4,.16,.84,.24,1.27,.24,.44,0,.88-.08,1.29-.24,.38-.15,.72-.39,.99-.69,.28-.32,.5-.7,.64-1.1,.16-.48,.24-.97,.23-1.48h0Z"></path><path id="Path_27242" data-name="Path 27242" class="cls-1" d="M135.68,42.06c.25,0,.49-.01,.73-.04,.21-.03,.41-.07,.62-.12,.18-.05,.36-.12,.54-.2,.17-.08,.34-.17,.52-.27v-2.1h-1.5s-.07-.01-.1-.04c-.03-.02-.04-.05-.04-.09v-.31h2.16v2.78c-.19,.14-.4,.26-.61,.36-.22,.11-.44,.2-.67,.27-.25,.07-.51,.13-.77,.17-.3,.04-.6,.06-.91,.06-.53,0-1.05-.09-1.54-.28-.45-.18-.86-.46-1.2-.81-.34-.36-.61-.79-.78-1.26-.37-1.06-.37-2.22,0-3.29,.17-.47,.44-.9,.78-1.26,.35-.35,.77-.63,1.23-.81,.52-.2,1.07-.29,1.63-.28,.28,0,.55,.02,.83,.06,.24,.04,.48,.1,.7,.18,.21,.08,.42,.18,.61,.29,.19,.12,.37,.25,.54,.4l-.15,.24c-.03,.05-.08,.08-.14,.08-.03,0-.06,0-.09-.02-.09-.04-.17-.09-.24-.15-.13-.1-.28-.18-.43-.25-.21-.1-.44-.18-.67-.24-.32-.08-.65-.11-.98-.1-.47,0-.94,.08-1.37,.24-.4,.15-.75,.39-1.05,.7-.3,.32-.53,.69-.67,1.1-.16,.47-.24,.97-.23,1.46,0,.51,.07,1.01,.24,1.49,.14,.41,.37,.79,.67,1.11,.29,.3,.64,.54,1.03,.7,.42,.17,.87,.25,1.33,.24Z"></path><path id="Path_27243" data-name="Path 27243" class="cls-1" d="M143.52,38.89v3.54h-.56v-7.82h1.99c.71-.05,1.42,.13,2.02,.52,.46,.37,.71,.94,.67,1.53,0,.28-.05,.56-.15,.82-.1,.24-.25,.47-.44,.65-.2,.19-.44,.35-.7,.46-.29,.13-.6,.2-.92,.23,.09,.06,.17,.13,.24,.22l2.69,3.38h-.49c-.05,0-.1-.01-.15-.03-.05-.03-.09-.07-.12-.11l-2.5-3.17c-.05-.07-.12-.13-.2-.17-.11-.04-.22-.06-.33-.05h-1.02Zm0-.42h1.36c.31,0,.63-.04,.93-.12,.25-.07,.49-.19,.7-.36,.19-.15,.33-.34,.43-.56,.1-.23,.15-.48,.15-.73,.04-.48-.17-.94-.55-1.24-.47-.3-1.03-.44-1.59-.4h-1.43v3.41Z"></path><path id="Path_27244" data-name="Path 27244" class="cls-1" d="M158.7,38.52c0,.56-.08,1.12-.27,1.64-.17,.47-.42,.9-.76,1.26-.33,.35-.73,.62-1.18,.81-.97,.38-2.05,.38-3.03,0-.44-.18-.85-.46-1.18-.81-.34-.36-.6-.79-.77-1.26-.36-1.06-.36-2.22,0-3.28,.17-.47,.43-.9,.77-1.26,.33-.35,.73-.62,1.18-.81,.48-.2,.99-.29,1.51-.29,.52,0,1.04,.09,1.52,.28,.45,.18,.85,.46,1.18,.81,.34,.36,.6,.79,.76,1.26,.19,.53,.28,1.08,.27,1.64Zm-.59,0c0-.5-.07-1-.23-1.47-.14-.41-.35-.78-.64-1.1-.27-.3-.61-.54-.99-.69-.41-.16-.85-.25-1.29-.24-.44,0-.87,.08-1.27,.24-.38,.16-.72,.39-.99,.69-.29,.32-.51,.7-.65,1.1-.31,.96-.31,1.98,0,2.94,.14,.41,.36,.78,.65,1.1,.28,.3,.62,.54,.99,.69,.4,.16,.84,.24,1.27,.24,.44,0,.88-.08,1.29-.24,.38-.15,.72-.39,.99-.69,.28-.32,.5-.7,.64-1.1,.16-.47,.23-.97,.23-1.47Z"></path><path id="Path_27245" data-name="Path 27245" class="cls-1" d="M165.64,42.02c.35,0,.69-.06,1.01-.2,.29-.12,.54-.31,.75-.54,.21-.24,.37-.52,.47-.82,.11-.33,.17-.67,.16-1.02v-4.83h.56v4.83c0,.41-.07,.82-.2,1.21-.13,.36-.33,.69-.59,.98-.26,.28-.58,.5-.93,.65-.79,.32-1.68,.32-2.47,0-.35-.15-.67-.37-.93-.65-.26-.28-.46-.62-.59-.98-.14-.39-.21-.8-.2-1.21v-4.83h.57v4.83c0,.35,.05,.69,.16,1.02,.1,.3,.26,.58,.47,.82,.21,.23,.46,.42,.75,.55,.32,.14,.66,.21,1.01,.2Z"></path><path id="Path_27246" data-name="Path 27246" class="cls-1" d="M173.78,39.28v3.15h-.56v-7.81h2.02c.74-.06,1.48,.16,2.07,.6,.48,.44,.74,1.07,.7,1.72,0,.32-.06,.65-.19,.94-.13,.29-.31,.54-.55,.74-.26,.22-.55,.38-.87,.49-.37,.12-.77,.18-1.16,.17h-1.45Zm0-.45h1.45c.32,0,.63-.04,.93-.14,.25-.09,.49-.22,.69-.4,.19-.17,.34-.37,.44-.6,.1-.24,.15-.49,.15-.75,.03-.52-.17-1.03-.56-1.39-.47-.36-1.06-.53-1.65-.49h-1.45v3.77Z"></path></g></g></svg>