<?xml version="1.0" encoding="UTF-8"?>
<svg id="Layer_1" data-name="Layer 1" xmlns="http://www.w3.org/2000/svg" viewBox="0 0 69.29 56.69">
  <defs>
    <style>
      .cls-1 {
        fill: #fff;
        fill-rule: evenodd;
      }
    </style>
  </defs>
  <path class="cls-1" d="M32.27,1.69c1.44,.6,2.38,2,2.38,3.56V51.44c0,1.56-.94,2.96-2.38,3.56-1.44,.6-3.09,.27-4.19-.83l-14.27-14.27H3.85c-2.13,0-3.85-1.72-3.85-3.85v-15.4c0-2.13,1.72-3.85,3.85-3.85H13.8L28.07,2.53c1.1-1.1,2.76-1.43,4.19-.83Z"/>
  <path class="cls-1" d="M52.57,1.13c1.5-1.5,3.94-1.5,5.44,0,6.96,6.96,11.27,16.59,11.27,27.22s-4.31,20.26-11.27,27.22c-1.5,1.5-3.94,1.5-5.44,0-1.5-1.5-1.5-3.94,0-5.44,5.58-5.58,9.02-13.27,9.02-21.78s-3.44-16.2-9.02-21.78c-1.5-1.5-1.5-3.94,0-5.44Zm-10.89,10.89c1.5-1.5,3.94-1.5,5.44,0,2.02,2.02,3.68,4.43,4.84,7.09,1.24,2.83,1.92,5.96,1.92,9.24,0,6.38-2.59,12.16-6.76,16.33-1.5,1.5-3.94,1.5-5.44,0-1.5-1.5-1.5-3.94,0-5.44,2.79-2.79,4.51-6.63,4.51-10.89,0-2.2-.46-4.28-1.28-6.16-.77-1.77-1.88-3.38-3.23-4.73-1.5-1.5-1.5-3.94,0-5.44Z"/>
</svg>